<?xml version="1.0" encoding="utf-8"?>
<!-- Generator: Adobe Illustrator 25.4.8, SVG Export Plug-In . SVG Version: 6.00 Build 0)  -->
<svg version="1.1" id="Layer_1" xmlns="http://www.w3.org/2000/svg" xmlns:xlink="http://www.w3.org/1999/xlink" x="0px" y="0px"
	 viewBox="0 0 66 46.8" style="enable-background:new 0 0 66 46.8;" xml:space="preserve">
<style type="text/css">
	.st0{fill:#A16136;}
</style>
<path class="st0" d="M56.6,32.9l-2.1-0.5c0-0.2-0.1-0.5-0.2-0.7l1.9,0.1c0.4,0,0.7-0.3,0.7-0.7c0-0.4-0.3-0.7-0.7-0.7L54,30.3
	c-0.1,0-0.3,0-0.4,0.1c-0.1-0.1-0.1-0.1-0.2-0.2l-0.1-0.1c-0.1-0.1-0.2-0.2-0.4-0.3l1.8-0.8c0.3-0.2,0.5-0.6,0.3-0.9
	c-0.2-0.3-0.6-0.5-0.9-0.3l-2.1,1c-0.1,0-0.2,0.1-0.3,0.2c-0.2-0.2-0.4-0.3-0.7-0.5l1.7-1.5c0.3-0.3,0.3-0.7,0.1-1s-0.7-0.3-1-0.1
	l-1.7,1.6c-0.1,0.1-0.1,0.1-0.2,0.2c-0.4-0.2-0.8-0.4-1.2-0.6l1.2-1.7c0.2-0.3,0.1-0.8-0.2-1c-0.3-0.2-0.8-0.1-1,0.2l-1.3,1.9
	c0,0,0,0,0,0c-0.4-0.2-0.9-0.3-1.3-0.4l0.5-2c0.1-0.4-0.1-0.8-0.5-0.9c-0.4-0.1-0.8,0.1-0.9,0.5l-0.6,2c-0.5-0.1-0.9-0.1-1.3-0.2
	l0.1-2.2c0-0.4-0.3-0.7-0.7-0.7c-0.4,0-0.7,0.3-0.7,0.7l-0.1,2.2c-0.3,0-0.6,0-0.9,0c-0.3,0-0.6,0-0.9,0l0.1-2.3
	c0-0.4-0.3-0.7-0.7-0.7c-0.4,0-0.7,0.3-0.7,0.7L39,25.6c-0.7-0.1-1.4-0.2-2-0.4l1.1-1.8c0.2-0.3,0.1-0.8-0.3-1
	c-0.3-0.2-0.8-0.1-1,0.3l-1.2,2c0,0,0,0,0,0c-0.6-0.3-1.2-0.6-1.7-0.9l1.6-1.5c0.3-0.3,0.3-0.7,0-1c-0.3-0.3-0.7-0.3-1,0l-1.7,1.6
	c-0.1,0.1-0.1,0.1-0.1,0.2c-0.4-0.3-0.8-0.6-1.1-0.9c0,0-0.1-0.1-0.1-0.1l1.5-1.4c0.3-0.3,0.3-0.7,0-1c-0.3-0.3-0.7-0.3-1,0
	l-1.7,1.5c-0.2-0.2-0.6-0.5-1-0.7l1.4-1.3c0.3-0.3,0.3-0.7,0-1c-0.3-0.3-0.7-0.3-1,0l-1.6,1.5c-0.2-0.2-0.5-0.4-0.8-0.6l1.1-1.9
	c0.2-0.3,0.1-0.8-0.3-1c-0.3-0.2-0.8-0.1-1,0.3l-1,1.8c-0.4-0.3-0.9-0.6-1.4-0.9c0.1,0,0.1-0.1,0.1-0.2l1.2-2c0.2-0.3,0.1-0.8-0.3-1
	c-0.3-0.2-0.8-0.1-1,0.3l-1.2,2c0,0,0,0.1,0,0.1c-0.5-0.3-1-0.6-1.6-0.9c0.1-0.1,0.2-0.1,0.2-0.2l1.2-2c0.2-0.3,0.1-0.8-0.3-1
	c-0.3-0.2-0.8-0.1-1,0.3l-1.2,2c-0.1,0.1-0.1,0.3-0.1,0.4c-0.6-0.3-1.1-0.5-1.7-0.7l1.1-1.8c0.2-0.3,0.1-0.8-0.3-1
	c-0.3-0.2-0.8-0.1-1,0.3l-1.2,2c0,0,0,0,0,0.1c-0.6-0.2-1.2-0.3-1.7-0.4l0.8-1.9c0.1-0.4,0-0.8-0.4-0.9v0c-0.4-0.1-0.8,0-0.9,0.4
	l-0.9,2.2c0,0,0,0.1,0,0.1c-0.2,0-0.4,0-0.6,0l-0.5-2.2c-0.1-0.4-0.5-0.6-0.8-0.5c-0.4,0.1-0.6,0.5-0.5,0.8l0.5,2.1
	c-0.2,0.1-0.4,0.1-0.6,0.2l-1.7-1.4c-0.3-0.2-0.7-0.2-1,0.1c-0.2,0.3-0.2,0.7,0.1,1l1.4,1.2c-0.1,0.1-0.2,0.2-0.2,0.3H9.5
	c-0.4,0-0.7,0.3-0.7,0.7v0c0,0.4,0.3,0.7,0.7,0.7H11c0,0.1,0,0.3,0.1,0.4l-1.4,0.9c-0.3,0.2-0.4,0.6-0.2,1s0.6,0.4,1,0.2l1.3-0.8
	c0,0,0,0.1,0.1,0.1c0.2,0.2,0.5,0.4,0.7,0.5l-0.5,1.1c-0.2,0.3,0,0.8,0.3,0.9c0.3,0.2,0.8,0,0.9-0.3l0.7-1.3c0.3,0,0.6,0.1,0.9,0.1
	l-0.4,1.3c-0.1,0.4,0.1,0.8,0.5,0.9c0.4,0.1,0.8-0.1,0.9-0.5l0.5-1.7c0,0,0,0,0,0l0.3,0c0.1,0,0.3,0,0.4,0L16.8,21
	c0,0.4,0.3,0.7,0.7,0.7c0.4,0,0.7-0.3,0.7-0.7l0.1-1.6c0.4,0.1,0.8,0.2,1.3,0.4l-0.5,2c-0.1,0.4,0.1,0.8,0.5,0.8
	c0.4,0.1,0.8-0.1,0.8-0.5l0.4-1.7c0.4,0.2,0.7,0.4,1.1,0.6l-1.1,1.9c-0.2,0.3-0.1,0.8,0.3,1v0c0.3,0.2,0.8,0.1,1-0.3l1-1.8
	c0.4,0.3,0.9,0.7,1.3,1.1c0,0,0,0,0,0l-1.7,1.7c-0.3,0.3-0.3,0.7,0,1c0.3,0.3,0.7,0.3,1,0l1.6-1.6c0.2,0.2,0.4,0.5,0.5,0.7
	c0.1,0.1,0.2,0.2,0.2,0.3l-1.5,1.5c-0.3,0.3-0.3,0.7,0,1c0.3,0.3,0.7,0.3,1,0L27,26c0.3,0.4,0.7,0.7,1.1,1l-1.3,1.3
	c-0.3,0.3-0.3,0.7,0,1v0c0.3,0.3,0.7,0.3,1,0l1.4-1.4c0.3,0.2,0.7,0.4,1.1,0.6l-0.7,1.9c-0.1,0.4,0,0.8,0.4,0.9
	c0.4,0.1,0.8,0,0.9-0.4l0.7-1.7c0.6,0.3,1.2,0.5,1.8,0.7l-0.7,1.8c-0.1,0.4,0,0.8,0.4,0.9c0.4,0.1,0.8,0,0.9-0.4l0.8-2
	c0.5,0.1,1,0.2,1.5,0.3l-0.2,1.9c0,0.4,0.2,0.7,0.6,0.8c0.4,0,0.7-0.2,0.8-0.6l0.2-1.9c0.4,0.1,0.8,0.1,1.3,0.1l-0.2,1.9
	c0,0.4,0.2,0.7,0.6,0.8c0.4,0,0.7-0.2,0.8-0.6l0.2-2c0.4,0,0.9,0.1,1.3,0.1c0,0,0,0,0.1,0l-0.2,2c0,0.4,0.2,0.7,0.6,0.8
	c0.4,0,0.7-0.2,0.8-0.6l0.2-2c0.5,0,0.9,0.1,1.3,0.2l-0.5,2.1c-0.1,0.4,0.2,0.7,0.5,0.8s0.7-0.2,0.8-0.5l0.5-2.1
	c0.5,0.1,0.8,0.3,1.2,0.5l-0.8,1.8c-0.2,0.3,0,0.8,0.3,0.9c0.3,0.2,0.8,0,0.9-0.3l0.7-1.6c0.2,0.2,0.5,0.4,0.8,0.5l-0.8,1.7
	c-0.2,0.3,0,0.8,0.3,0.9c0.3,0.2,0.8,0,0.9-0.3l0.8-1.6c0.2,0.1,0.3,0.1,0.5,0.2v2.2c0,0.4,0.3,0.7,0.7,0.7c0.4,0,0.7-0.3,0.7-0.7
	v-1.8c0.2,0,0.5,0.1,0.7,0.1c0.1,0,0.1,0,0.2,0l1.1,1.9c0.2,0.3,0.6,0.4,1,0.3s0.4-0.6,0.3-1l-1-1.7c0.1-0.1,0.2-0.2,0.3-0.3
	c0,0,0-0.1,0-0.1l2,0.5c0.4,0.1,0.7-0.2,0.8-0.5C57.2,33.4,57,33,56.6,32.9z"/>
</svg>
