<?xml version="1.0" encoding="utf-8"?>
<!-- Generator: Adobe Illustrator 25.4.8, SVG Export Plug-In . SVG Version: 6.00 Build 0)  -->
<svg version="1.1" id="Layer_1" xmlns="http://www.w3.org/2000/svg" xmlns:xlink="http://www.w3.org/1999/xlink" x="0px" y="0px"
	 viewBox="0 0 66 46.8" style="enable-background:new 0 0 66 46.8;" xml:space="preserve">
	  <defs>
                <filter id="f1" x="0" y="0">
                <feGaussianBlur in="SourceGraphic" stdDeviation="4" />
                </filter>
            </defs>
<style type="text/css">
	.st0{fill:#DF8048;}
</style>
<path class="st0" d="M43.3,33.7L43,33.3c0.5-0.7,0.8-1.2,0.8-1.2c0.7-1,1.2-2.2,1.5-3.5l1.3,0c1,0,1.9-0.8,1.9-1.8
	c0-1-0.8-1.9-1.8-1.9l-1.3,0c-0.2-1.3-0.7-2.6-1.6-3.8l0.6-0.8c0.6-0.8,0.5-2-0.3-2.6c-0.8-0.6-2-0.5-2.6,0.3l-0.3,0.4
	c-0.9-0.7-1.9-1.3-3-1.8l0.7-1.1c0.6-0.9,0.3-2-0.5-2.6c-0.9-0.6-2-0.3-2.6,0.5l-0.9,1.4l-3.1-1.9l0.3-1.3c0.3-1-0.3-2-1.3-2.3
	c-1-0.3-2,0.3-2.3,1.3l-0.1,0.6c-1.6-0.4-3.1-0.1-4.6,0.6l-0.8-0.9c-0.7-0.8-1.9-0.8-2.6-0.1s-0.8,1.9-0.1,2.6l0.6,0.7
	c-0.4,0.4-0.7,0.9-1.1,1.4c-0.5,0.7-0.9,1.5-1.1,2.3l-1.1-0.2c-1-0.1-2,0.6-2.1,1.6c-0.1,1,0.6,2,1.6,2.1l1.2,0.2
	c0.1,1.5,0.6,3,1.5,4.3l-0.4,0.4c-0.7,0.7-0.7,1.9,0,2.6l0,0c0.7,0.7,1.9,0.7,2.6,0l0.4-0.4l2.9,1.9l-0.6,1.1
	c-0.5,0.9-0.2,2,0.7,2.5c0.9,0.5,2,0.2,2.5-0.7l0.5-0.9l2.9,1.9L30.8,35c-0.4,0.9,0,2,0.9,2.5c0.9,0.4,2,0,2.5-0.9l0.2-0.4
	c2.4,0.8,4.3,0.4,5.8-0.4l0.4,0.4c0.7,0.8,1.9,0.8,2.6,0.1C44,35.7,44,34.5,43.3,33.7z"/>
</svg>
