<?xml version="1.0" encoding="utf-8"?>
<!-- Generator: Adobe Illustrator 25.4.8, SVG Export Plug-In . SVG Version: 6.00 Build 0)  -->
<svg version="1.1" id="Layer_1" xmlns="http://www.w3.org/2000/svg" xmlns:xlink="http://www.w3.org/1999/xlink" x="0px" y="0px"
	 viewBox="0 0 44.8 36.1" style="enable-background:new 0 0 44.8 36.1;" xml:space="preserve">
<style type="text/css">
	.st0{fill:#FFFFFF;}
</style>
<path class="st0" d="M41.9,17.5c-6.7-6.6-13.8-9.8-20.9-9.4C10.1,8.7,3.1,17.2,2.8,17.6l-0.6,0.7l0.7,0.6c6,5.9,12.5,8.9,19.2,8.9
	c0.2,0,0.4,0,0.5,0c11.2-0.3,19-8.5,19.3-8.9l0.7-0.7L41.9,17.5z M22.5,26.6c-1-0.9-3.8-4-4-8.1c-0.2-3.1,1.2-6.3,4.1-9.4
	c1,1,3.7,4.3,3.8,8.6C26.4,20.9,25.1,23.8,22.5,26.6z"/>
</svg>
